<?xml version="1.0" encoding="utf-8"?>
<!-- Generator: Adobe Illustrator 18.1.1, SVG Export Plug-In . SVG Version: 6.00 Build 0)  -->
<svg version="1.1" id="Layer_1" xmlns="http://www.w3.org/2000/svg" xmlns:xlink="http://www.w3.org/1999/xlink" x="0px" y="0px"
	 viewBox="161 143 278 288" enable-background="new 161 143 278 288" xml:space="preserve">
<g>
	<polygon fill="none" points="304,209.6 346.3,282.8 363.8,282.8 312.7,194.3 	"/>
	<polygon fill="none" points="189.1,364.4 206.6,364.4 232.5,319.6 214.9,319.6 	"/>
	<polygon fill="none" points="300,216.5 261.7,282.8 338.3,282.8 	"/>
	<polygon fill="none" points="393.4,364.4 410.9,364.4 385,319.6 367.5,319.6 	"/>
	<polygon fill="none" points="214.6,364.4 385.4,364.4 359.6,319.6 240.4,319.6 	"/>
	<polygon fill="none" points="296,209.6 287.2,194.3 236.2,282.8 253.7,282.8 	"/>
	<polygon fill="none" points="210.6,371.3 201.8,386.5 398.2,386.5 389.4,371.3 	"/>
	
		<linearGradient id="SVGID_1_" gradientUnits="userSpaceOnUse" x1="2484.3435" y1="-2097.8252" x2="3644.8672" y2="-87.739" gradientTransform="matrix(0.1058 0 0 -0.1058 0 213.5025)">
		<stop  offset="0" style="stop-color:#535454"/>
		<stop  offset="0.2527" style="stop-color:#B9B9B9"/>
		<stop  offset="0.6935" style="stop-color:#A8A7A8"/>
		<stop  offset="1" style="stop-color:#535454"/>
	</linearGradient>
	<path fill="url(#SVGID_1_)" d="M371.8,282.8l-59-102.2L300,202.7l-12.7-22.1l-59,102.2l-51.1,88.5h25.5l-12.7,22.1h220.2
		l-12.8-22.1h25.5L393,319.6L371.8,282.8z M410.9,364.4h-17.5L304,209.6l8.8-15.2L410.9,364.4z M359.6,319.6l25.9,44.9H214.6
		l25.9-44.9l21.2-36.8l38.3-66.4l38.3,66.4L359.6,319.6z M189.1,364.4l47.1-81.6l51.1-88.5l8.8,15.2l-42.3,73.2l-47.5,81.5
		L189.1,364.4z M398.2,386.5H201.8l8.8-15.2h178.8L398.2,386.5z"/>
	<g>
		<g>
			
				<linearGradient id="SVGID_2_" gradientUnits="userSpaceOnUse" x1="308.582" y1="-1883.1958" x2="484.6148" y2="-1883.1958" gradientTransform="matrix(0.4902 0 0 0.4902 105.8818 1245.4181)">
				<stop  offset="0" style="stop-color:#535454"/>
				<stop  offset="0.2527" style="stop-color:#B9B9B9"/>
				<stop  offset="0.6935" style="stop-color:#A8A7A8"/>
				<stop  offset="1" style="stop-color:#535454"/>
			</linearGradient>
			<path fill="url(#SVGID_2_)" d="M257.4,341.8c0,0,0-0.6-0.1-1.5c0-0.4,0-1.1-0.1-1.9c0-0.3,0-0.8,0-1.1c0-0.4,0.1-0.9,0.1-1.3
				c0.1-0.9,0.1-2,0.2-3.1c0.2-1.1,0.4-2.3,0.7-3.7c0.3-1.3,0.8-2.7,1.1-4.1c0.2-0.8,0.6-1.4,0.8-2.1c0.3-0.8,0.7-1.4,0.9-2.2
				c0.3-0.8,0.8-1.4,1.2-2.2s0.8-1.5,1.3-2.3c1-1.4,2-3,3.2-4.4c2.3-3,5.4-5.6,8.8-8.1c0.9-0.6,1.8-1.1,2.7-1.7
				c0.9-0.6,1.9-1,2.9-1.4l1.4-0.8l1.5-0.6c1-0.3,2-0.8,3.1-1.1c4.2-1.3,8.6-1.9,13.2-2l3.3,0.2c0.6,0,1,0,1.7,0.1l1.7,0.2l1.7,0.2
				l0.9,0.1l0.8,0.2c1.1,0.3,2.1,0.6,3.2,0.9c1.1,0.3,2.1,0.8,3.1,1.1l1.5,0.6l1.4,0.8c1,0.6,1.9,0.9,2.9,1.4
				c0.9,0.6,1.8,1.1,2.7,1.7c3.4,2.4,6.4,5.1,8.8,8.1c1.3,1.4,2.2,3,3.2,4.4c0.6,0.8,0.9,1.5,1.3,2.3c0.4,0.8,0.8,1.4,1.2,2.2
				c0.3,0.8,0.7,1.4,0.9,2.2c0.3,0.8,0.7,1.4,0.8,2.1c0.4,1.4,0.9,2.8,1.1,4.1c0.2,1.3,0.4,2.5,0.7,3.7c0.1,1.1,0.2,2.2,0.2,3.1
				c0,0.4,0.1,0.9,0.1,1.3c0,0.4,0,0.8,0,1.2c0,0.8,0,1.3-0.1,1.9c0,1-0.1,1.5-0.1,1.5s-0.1,7.2-0.2,6.2c-0.1-0.4-0.1-1.1-0.2-1.8
				c0-0.3-0.1-0.8-0.2-1.1c-0.1-0.4-0.2-0.8-0.3-1.2c-0.2-0.9-0.4-1.9-0.7-3c-0.3-1-0.7-2.2-1.1-3.3c-0.4-1.2-1-2.4-1.5-3.7
				c-0.6-1.3-1.3-2.5-2.1-3.9c-0.4-0.7-0.9-1.3-1.3-2c-0.4-0.7-0.9-1.3-1.4-2c-1.1-1.2-2-2.7-3.3-3.9c-2.3-2.5-5.3-4.8-8.4-6.8
				c-3.2-2-6.7-3.5-10.5-4.6c-1-0.2-1.9-0.4-2.9-0.7l-0.7-0.2l-0.7-0.1l-1.4-0.2l-1.4-0.2c-0.4-0.1-1-0.1-1.5-0.1l-3-0.1
				c-4,0.1-8,0.6-11.7,1.7c-3.8,1.2-7.3,2.7-10.5,4.6c-3.1,2-6.1,4.2-8.4,6.8c-1.3,1.2-2.2,2.5-3.3,3.9c-0.6,0.7-0.9,1.3-1.4,2
				c-0.4,0.7-0.9,1.3-1.3,2c-0.7,1.3-1.4,2.7-2.1,3.9c-0.6,1.3-1.1,2.5-1.5,3.7c-0.4,1.2-0.8,2.3-1.1,3.3c-0.2,1.1-0.4,2-0.7,2.9
				c-0.1,0.4-0.2,0.9-0.3,1.2c-0.1,0.4-0.1,0.8-0.2,1.1c-0.1,0.7-0.2,1.3-0.2,1.8C257.4,349,257.4,341.8,257.4,341.8z"/>
		</g>
		<g>
			
				<linearGradient id="SVGID_3_" gradientUnits="userSpaceOnUse" x1="366.9826" y1="-1974.9304" x2="428.7297" y2="-1974.9304" gradientTransform="matrix(0.4902 0 0 0.4902 105.8818 1245.4181)">
				<stop  offset="0" style="stop-color:#535454"/>
				<stop  offset="0.2527" style="stop-color:#B9B9B9"/>
				<stop  offset="0.6935" style="stop-color:#A8A7A8"/>
				<stop  offset="1" style="stop-color:#535454"/>
			</linearGradient>
			<path fill="url(#SVGID_3_)" d="M316,278.4c0-8.4-6.7-15.1-15.1-15.1c-8.4,0-15.1,6.7-15.1,15.1c0,5.4,2.9,10.2,7.2,12.9
				c-3-2.5-4.9-6.4-4.9-10.7c0-7.6,5.7-13.7,12.9-13.7c7.1,0,12.9,6.2,12.9,13.7c0,4.2-1.8,8-4.5,10.5
				C313.4,288.3,316,283.7,316,278.4z"/>
		</g>
	</g>
</g>
</svg>
