<?xml version="1.0" encoding="utf-8"?>
<!-- Generator: Adobe Illustrator 19.2.1, SVG Export Plug-In . SVG Version: 6.00 Build 0)  -->
<svg version="1.1" id="Layer_1" xmlns="http://www.w3.org/2000/svg" xmlns:xlink="http://www.w3.org/1999/xlink" x="0px" y="0px"
	 viewBox="0 0 100 100" style="enable-background:new 0 0 100 100;" xml:space="preserve">
<style type="text/css">
	.st0{fill:none;stroke:#D9BE7A;stroke-width:0.5026;stroke-miterlimit:10;}
	.st1{fill:none;stroke:#D9BE7A;stroke-width:0.335;stroke-miterlimit:10;}
	.st2{fill:url(#SVGID_1_);}
	.st3{fill:url(#SVGID_2_);}
	.st4{fill:url(#SVGID_3_);}
	.st5{fill:url(#SVGID_4_);}
	.st6{fill:url(#SVGID_5_);}
	.st7{fill:url(#SVGID_6_);}
	.st8{fill:url(#SVGID_7_);}
	.st9{fill:url(#SVGID_8_);}
	.st10{fill:url(#SVGID_9_);}
	.st11{fill:url(#SVGID_10_);}
	.st12{fill:url(#SVGID_11_);}
	.st13{fill:url(#SVGID_12_);}
	.st14{fill:url(#SVGID_13_);}
	.st15{fill:url(#SVGID_14_);}
	.st16{fill:url(#SVGID_15_);}
	.st17{fill:url(#SVGID_16_);}
	.st18{fill:url(#SVGID_17_);}
</style>
<rect x="12" y="50.7" class="st0" width="72" height="10.6"/>
<polyline class="st1" points="23.4,49.7 42.4,16.7 61.5,49.7 "/>
<polyline class="st1" points="75.5,74 9.3,74 16.1,62.3 "/>
<polyline class="st1" points="77.5,62.2 84.3,74 18.1,74 "/>
<polyline class="st1" points="32.2,49.7 51.2,16.7 70.2,49.6 "/>
<polyline class="st1" points="68.6,62.2 80.1,82 13.9,82 25.3,62.3 "/>
<g>
	<linearGradient id="SVGID_1_" gradientUnits="userSpaceOnUse" x1="40.0813" y1="43.2115" x2="54.1514" y2="43.2115">
		<stop  offset="0" style="stop-color:#D9BE7A"/>
		<stop  offset="0.4815" style="stop-color:#B49154"/>
		<stop  offset="1" style="stop-color:#9E753E"/>
	</linearGradient>
	<path class="st2" d="M40.1,46.9c0,0,0-0.1,0-0.2c0-0.1,0-0.2,0-0.3c0-0.1,0-0.1,0-0.2c0-0.1,0-0.1,0-0.2c0-0.2,0-0.3,0-0.5
		c0-0.2,0.1-0.4,0.1-0.6c0-0.2,0.1-0.4,0.2-0.7c0-0.1,0.1-0.2,0.1-0.3c0-0.1,0.1-0.2,0.2-0.4c0.1-0.1,0.1-0.2,0.2-0.4
		c0.1-0.1,0.1-0.3,0.2-0.4c0.2-0.2,0.3-0.5,0.5-0.7c0.4-0.5,0.9-0.9,1.4-1.3c0.1-0.1,0.3-0.2,0.4-0.3c0.1-0.1,0.3-0.2,0.5-0.2
		l0.2-0.1l0.2-0.1c0.2-0.1,0.3-0.1,0.5-0.2c0.7-0.2,1.4-0.3,2.1-0.3l0.5,0c0.1,0,0.2,0,0.3,0l0.3,0l0.3,0l0.1,0l0.1,0
		c0.2,0,0.3,0.1,0.5,0.1c0.2,0.1,0.3,0.1,0.5,0.2l0.2,0.1l0.2,0.1c0.2,0.1,0.3,0.2,0.5,0.2c0.1,0.1,0.3,0.2,0.4,0.3
		c0.6,0.4,1.1,0.8,1.4,1.3c0.2,0.2,0.4,0.5,0.5,0.7c0.1,0.1,0.1,0.2,0.2,0.4c0.1,0.1,0.1,0.2,0.2,0.4c0.1,0.1,0.1,0.2,0.2,0.4
		c0,0.1,0.1,0.2,0.1,0.3c0.1,0.2,0.1,0.4,0.2,0.7c0,0.2,0.1,0.4,0.1,0.6c0,0.2,0,0.4,0,0.5c0,0.1,0,0.1,0,0.2c0,0.1,0,0.1,0,0.2
		c0,0.1,0,0.2,0,0.3c0,0.2,0,0.2,0,0.2s0-0.1,0-0.2c0-0.1,0-0.2,0-0.3c0-0.1,0-0.1,0-0.2c0-0.1,0-0.1,0-0.2c0-0.1-0.1-0.3-0.1-0.5
		c-0.1-0.2-0.1-0.4-0.2-0.5c-0.1-0.2-0.2-0.4-0.3-0.6c-0.1-0.2-0.2-0.4-0.3-0.6c-0.1-0.1-0.1-0.2-0.2-0.3c-0.1-0.1-0.1-0.2-0.2-0.3
		c-0.2-0.2-0.3-0.4-0.5-0.6c-0.4-0.4-0.9-0.8-1.4-1.1c-0.5-0.3-1.1-0.6-1.7-0.8c-0.2,0-0.3-0.1-0.5-0.1l-0.1,0l-0.1,0l-0.2,0l-0.2,0
		c-0.1,0-0.2,0-0.3,0l-0.5,0c-0.6,0-1.3,0.1-1.9,0.3c-0.6,0.2-1.2,0.4-1.7,0.8c-0.5,0.3-1,0.7-1.4,1.1c-0.2,0.2-0.4,0.4-0.5,0.6
		c-0.1,0.1-0.2,0.2-0.2,0.3c-0.1,0.1-0.1,0.2-0.2,0.3c-0.1,0.2-0.2,0.4-0.3,0.6c-0.1,0.2-0.2,0.4-0.3,0.6c-0.1,0.2-0.1,0.4-0.2,0.5
		c0,0.2-0.1,0.3-0.1,0.5c0,0.1,0,0.1,0,0.2c0,0.1,0,0.1,0,0.2c0,0.1,0,0.2,0,0.3C40.1,46.8,40.1,46.9,40.1,46.9z"/>
	<linearGradient id="SVGID_2_" gradientUnits="userSpaceOnUse" x1="44.6367" y1="36.0178" x2="49.5972" y2="36.0178">
		<stop  offset="0" style="stop-color:#D9BE7A"/>
		<stop  offset="0.4815" style="stop-color:#B49154"/>
		<stop  offset="1" style="stop-color:#9E753E"/>
	</linearGradient>
	<path class="st3" d="M45.5,38.1C45.5,38.1,45.4,38.1,45.5,38.1c-0.2-0.1-0.2-0.2-0.3-0.3c0-0.1-0.1-0.1-0.1-0.2
		c0-0.1-0.1-0.2-0.1-0.3c-0.1-0.2-0.2-0.4-0.2-0.7c0-0.3,0-0.6,0.1-0.9c0.1-0.3,0.2-0.6,0.5-0.9c0.1-0.1,0.1-0.1,0.2-0.2
		c0.1-0.1,0.1-0.1,0.2-0.2c0.1-0.1,0.3-0.2,0.5-0.3c0.3-0.2,0.7-0.2,1.1-0.3c0.4,0,0.8,0.1,1.1,0.3c0.3,0.2,0.6,0.4,0.8,0.7
		c0.2,0.3,0.4,0.6,0.5,0.9c0.1,0.3,0.1,0.6,0.1,0.9c0,0.3-0.1,0.5-0.2,0.7c0,0.1-0.1,0.2-0.1,0.3c-0.1,0.1-0.1,0.1-0.1,0.2
		C49,37.9,48.9,38,48.9,38c-0.1,0.1-0.1,0.1-0.1,0.1s0,0,0.1-0.1c0.1-0.1,0.1-0.2,0.2-0.3c0-0.1,0.1-0.1,0.1-0.2
		c0-0.1,0.1-0.2,0.1-0.3c0.1-0.2,0.1-0.4,0.1-0.7c0-0.2,0-0.5-0.1-0.8c-0.1-0.3-0.2-0.5-0.4-0.7c-0.2-0.2-0.5-0.4-0.7-0.5
		c-0.3-0.1-0.6-0.2-0.9-0.2c-0.3,0-0.6,0.1-0.9,0.2c-0.1,0-0.1,0.1-0.2,0.1c-0.1,0-0.1,0.1-0.2,0.1c-0.1,0-0.1,0.1-0.2,0.2
		c-0.1,0-0.1,0.1-0.2,0.2c-0.2,0.2-0.3,0.5-0.4,0.7c-0.1,0.3-0.1,0.5-0.1,0.8c0,0.2,0,0.5,0.1,0.7c0,0.1,0.1,0.2,0.1,0.3
		c0,0.1,0.1,0.2,0.1,0.2C45.3,37.9,45.3,38,45.5,38.1C45.4,38.1,45.5,38.1,45.5,38.1z"/>
</g>
<g>
	<g>
		<linearGradient id="SVGID_3_" gradientUnits="userSpaceOnUse" x1="14.7035" y1="56.0328" x2="19.8954" y2="56.0328">
			<stop  offset="0" style="stop-color:#D9BE7A"/>
			<stop  offset="0.4815" style="stop-color:#B49154"/>
			<stop  offset="1" style="stop-color:#9E753E"/>
		</linearGradient>
		<path class="st4" d="M19,59l-0.3-0.8h-2.7L15.6,59h-0.9l2.6-5.9l2.6,5.9H19z M16.3,57.3h2l-1-2.3L16.3,57.3z"/>
		<linearGradient id="SVGID_4_" gradientUnits="userSpaceOnUse" x1="20.6916" y1="56.0328" x2="25.0713" y2="56.0328">
			<stop  offset="0" style="stop-color:#D9BE7A"/>
			<stop  offset="0.4815" style="stop-color:#B49154"/>
			<stop  offset="1" style="stop-color:#9E753E"/>
		</linearGradient>
		<path class="st5" d="M24.2,56.8v-3.7h0.9V59l-3.5-3.6V59h-0.9v-5.9L24.2,56.8z"/>
		<linearGradient id="SVGID_5_" gradientUnits="userSpaceOnUse" x1="25.8676" y1="56.0328" x2="30.0481" y2="56.0328">
			<stop  offset="0" style="stop-color:#D9BE7A"/>
			<stop  offset="0.4815" style="stop-color:#B49154"/>
			<stop  offset="1" style="stop-color:#9E753E"/>
		</linearGradient>
		<path class="st6" d="M27.5,53.9h-1.7v-0.9H30v0.9h-1.6v5h-0.9V53.9z"/>
		<linearGradient id="SVGID_6_" gradientUnits="userSpaceOnUse" x1="30.9242" y1="56.0328" x2="31.7922" y2="56.0328">
			<stop  offset="0" style="stop-color:#D9BE7A"/>
			<stop  offset="0.4815" style="stop-color:#B49154"/>
			<stop  offset="1" style="stop-color:#9E753E"/>
		</linearGradient>
		<path class="st7" d="M31.8,59h-0.9v-5.9h0.9V59z"/>
		<linearGradient id="SVGID_7_" gradientUnits="userSpaceOnUse" x1="32.7476" y1="56.0328" x2="36.3787" y2="56.0328">
			<stop  offset="0" style="stop-color:#D9BE7A"/>
			<stop  offset="0.4815" style="stop-color:#B49154"/>
			<stop  offset="1" style="stop-color:#9E753E"/>
		</linearGradient>
		<path class="st8" d="M32.7,59v-5.9h3.6v0.8h-2.8v1.8h2.2v0.8h-2.2V59H32.7z"/>
		<linearGradient id="SVGID_8_" gradientUnits="userSpaceOnUse" x1="37.2545" y1="56.0328" x2="41.2042" y2="56.0328">
			<stop  offset="0" style="stop-color:#D9BE7A"/>
			<stop  offset="0.4815" style="stop-color:#B49154"/>
			<stop  offset="1" style="stop-color:#9E753E"/>
		</linearGradient>
		<path class="st9" d="M40.2,59l-0.9-2c-0.1,0-0.1,0-0.2,0c-0.1,0-0.1,0-0.1,0h-0.9v2h-0.9v-5.9h0.9H39c0.1,0,0.2,0,0.4,0
			c0.1,0,0.3,0,0.4,0.1c0.1,0,0.3,0.1,0.4,0.2s0.3,0.2,0.4,0.3c0.1,0.1,0.2,0.3,0.3,0.6C41,54.4,41,54.7,41,55c0,0.3,0,0.5-0.1,0.7
			c0,0.2-0.1,0.4-0.2,0.5c-0.1,0.1-0.2,0.3-0.3,0.3c-0.1,0.1-0.2,0.2-0.3,0.2l1,2.2H40.2z M38.7,56.1c0.2,0,0.3,0,0.5,0
			c0.2,0,0.3,0,0.5-0.1c0.1-0.1,0.3-0.2,0.3-0.3c0.1-0.1,0.1-0.4,0.1-0.7c0-0.3,0-0.5-0.1-0.7c-0.1-0.1-0.2-0.3-0.3-0.3
			C39.5,54,39.4,54,39.2,54c-0.2,0-0.3,0-0.5,0h-0.6v2.2H38.7z"/>
		<linearGradient id="SVGID_9_" gradientUnits="userSpaceOnUse" x1="42.0004" y1="56.0328" x2="47.1923" y2="56.0328">
			<stop  offset="0" style="stop-color:#D9BE7A"/>
			<stop  offset="0.4815" style="stop-color:#B49154"/>
			<stop  offset="1" style="stop-color:#9E753E"/>
		</linearGradient>
		<path class="st10" d="M46.3,59L46,58.2h-2.7L42.9,59H42l2.6-5.9l2.6,5.9H46.3z M43.6,57.3h2l-1-2.3L43.6,57.3z"/>
		<linearGradient id="SVGID_10_" gradientUnits="userSpaceOnUse" x1="47.9887" y1="56.0328" x2="52.3762" y2="56.0328">
			<stop  offset="0" style="stop-color:#D9BE7A"/>
			<stop  offset="0.4815" style="stop-color:#B49154"/>
			<stop  offset="1" style="stop-color:#9E753E"/>
		</linearGradient>
		<path class="st11" d="M48,53.1h0.9v3.9c0,0,0,0.1,0,0.3c0,0.1,0.1,0.3,0.2,0.4c0.1,0.1,0.2,0.3,0.4,0.4c0.2,0.1,0.4,0.2,0.7,0.2
			c0.3,0,0.5-0.1,0.7-0.2c0.2-0.1,0.3-0.2,0.4-0.4c0.1-0.1,0.2-0.3,0.2-0.4c0-0.1,0-0.2,0-0.3v-3.9h0.9v3.9c0,0,0,0.1,0,0.2
			s-0.1,0.2-0.1,0.4c-0.1,0.2-0.1,0.3-0.2,0.5c-0.1,0.2-0.2,0.3-0.4,0.5c-0.2,0.1-0.4,0.3-0.6,0.4c-0.2,0.1-0.5,0.1-0.9,0.1
			c-0.3,0-0.6,0-0.9-0.1c-0.2-0.1-0.4-0.2-0.6-0.3c-0.2-0.1-0.3-0.3-0.4-0.4c-0.1-0.2-0.2-0.3-0.2-0.5c-0.1-0.2-0.1-0.3-0.1-0.4
			c0-0.1,0-0.2,0-0.3V53.1z"/>
		<linearGradient id="SVGID_11_" gradientUnits="userSpaceOnUse" x1="53.2599" y1="56.0328" x2="57.6236" y2="56.0328">
			<stop  offset="0" style="stop-color:#D9BE7A"/>
			<stop  offset="0.4815" style="stop-color:#B49154"/>
			<stop  offset="1" style="stop-color:#9E753E"/>
		</linearGradient>
		<path class="st12" d="M54.2,53.1c0.2,0,0.5,0,0.7,0c0.3,0,0.5,0,0.8,0.1c0.3,0.1,0.5,0.1,0.7,0.3c0.2,0.1,0.4,0.3,0.6,0.5
			c0.2,0.2,0.3,0.5,0.4,0.8c0.1,0.3,0.2,0.8,0.2,1.3c0,0.5-0.1,0.9-0.2,1.2c-0.1,0.3-0.2,0.6-0.4,0.8c-0.2,0.2-0.4,0.4-0.6,0.5
			c-0.2,0.1-0.5,0.2-0.7,0.3c-0.3,0.1-0.5,0.1-0.8,0.1c-0.3,0-0.5,0-0.7,0h-0.9v-5.9H54.2z M54.7,58.1c0.2,0,0.5,0,0.7-0.1
			c0.2,0,0.5-0.1,0.7-0.3c0.2-0.1,0.4-0.4,0.5-0.6c0.1-0.3,0.2-0.6,0.2-1.1c0-0.3,0-0.6-0.1-0.8c-0.1-0.2-0.1-0.4-0.2-0.6
			c-0.1-0.2-0.2-0.3-0.4-0.4c-0.1-0.1-0.3-0.2-0.4-0.2C55.5,54,55.3,54,55.2,54c-0.2,0-0.3,0-0.5,0h-0.6v4.2H54.7z"/>
	</g>
	<g>
		<linearGradient id="SVGID_12_" gradientUnits="userSpaceOnUse" x1="59.4668" y1="56.0328" x2="64.1888" y2="56.0328">
			<stop  offset="0" style="stop-color:#D9BE7A"/>
			<stop  offset="0.4815" style="stop-color:#B49154"/>
			<stop  offset="1" style="stop-color:#9E753E"/>
		</linearGradient>
		<path class="st13" d="M59.5,53.1l2.4,2.7l2.4-2.7V59h-0.9v-3.6L61.8,57l-1.5-1.7V59h-0.9V53.1z"/>
		<linearGradient id="SVGID_13_" gradientUnits="userSpaceOnUse" x1="65.0725" y1="56.0328" x2="65.9406" y2="56.0328">
			<stop  offset="0" style="stop-color:#D9BE7A"/>
			<stop  offset="0.4815" style="stop-color:#B49154"/>
			<stop  offset="1" style="stop-color:#9E753E"/>
		</linearGradient>
		<path class="st14" d="M65.9,59h-0.9v-5.9h0.9V59z"/>
		<linearGradient id="SVGID_14_" gradientUnits="userSpaceOnUse" x1="66.8164" y1="56.0328" x2="71.196" y2="56.0328">
			<stop  offset="0" style="stop-color:#D9BE7A"/>
			<stop  offset="0.4815" style="stop-color:#B49154"/>
			<stop  offset="1" style="stop-color:#9E753E"/>
		</linearGradient>
		<path class="st15" d="M70.3,56.8v-3.7h0.9V59l-3.5-3.6V59h-0.9v-5.9L70.3,56.8z"/>
		<linearGradient id="SVGID_15_" gradientUnits="userSpaceOnUse" x1="72.0718" y1="56.0328" x2="76.4355" y2="56.0328">
			<stop  offset="0" style="stop-color:#D9BE7A"/>
			<stop  offset="0.4815" style="stop-color:#B49154"/>
			<stop  offset="1" style="stop-color:#9E753E"/>
		</linearGradient>
		<path class="st16" d="M73,53.1c0.2,0,0.5,0,0.7,0c0.3,0,0.5,0,0.8,0.1c0.3,0.1,0.5,0.1,0.7,0.3c0.2,0.1,0.4,0.3,0.6,0.5
			c0.2,0.2,0.3,0.5,0.4,0.8c0.1,0.3,0.2,0.8,0.2,1.3c0,0.5-0.1,0.9-0.2,1.2c-0.1,0.3-0.2,0.6-0.4,0.8c-0.2,0.2-0.4,0.4-0.6,0.5
			c-0.2,0.1-0.5,0.2-0.7,0.3C74.3,58.9,74,59,73.7,59c-0.3,0-0.5,0-0.7,0h-0.9v-5.9H73z M73.5,58.1c0.2,0,0.5,0,0.7-0.1
			c0.2,0,0.5-0.1,0.7-0.3c0.2-0.1,0.4-0.4,0.5-0.6c0.1-0.3,0.2-0.6,0.2-1.1c0-0.3,0-0.6-0.1-0.8c-0.1-0.2-0.1-0.4-0.2-0.6
			c-0.1-0.2-0.2-0.3-0.4-0.4c-0.1-0.1-0.3-0.2-0.4-0.2C74.3,54,74.1,54,74,54c-0.2,0-0.3,0-0.5,0h-0.6v4.2H73.5z"/>
		<linearGradient id="SVGID_16_" gradientUnits="userSpaceOnUse" x1="77.2319" y1="56.0368" x2="81.4203" y2="56.0368">
			<stop  offset="0" style="stop-color:#D9BE7A"/>
			<stop  offset="0.4815" style="stop-color:#B49154"/>
			<stop  offset="1" style="stop-color:#9E753E"/>
		</linearGradient>
		<path class="st17" d="M79.2,53.1c0.2,0,0.4,0,0.6,0.1c0.2,0,0.3,0.1,0.4,0.1c0.1,0.1,0.3,0.1,0.4,0.2l-0.4,0.8
			c-0.1,0-0.2-0.1-0.3-0.1c-0.1,0-0.2-0.1-0.3-0.1c-0.1,0-0.2,0-0.4,0c-0.1,0-0.3,0-0.4,0.1c-0.1,0-0.2,0.1-0.2,0.2
			c-0.1,0.1-0.1,0.1-0.1,0.2c0,0.1,0,0.2,0,0.2c0,0.2,0.1,0.4,0.2,0.4c0.1,0.1,0.3,0.2,0.5,0.2c0.2,0.1,0.5,0.1,0.7,0.2
			c0.3,0.1,0.5,0.1,0.7,0.3c0.2,0.1,0.4,0.3,0.5,0.5c0.1,0.2,0.2,0.5,0.2,0.9c0,0.2-0.1,0.5-0.1,0.7c-0.1,0.2-0.2,0.4-0.4,0.6
			c-0.2,0.2-0.4,0.3-0.7,0.4c-0.3,0.1-0.6,0.1-0.9,0.1c-0.3,0-0.5,0-0.7-0.1s-0.4-0.1-0.5-0.2c-0.2-0.1-0.3-0.2-0.4-0.2
			s-0.2-0.2-0.3-0.2l0.5-0.8c0.3,0.2,0.6,0.4,0.9,0.5c0.3,0.1,0.5,0.1,0.7,0.1c0.2,0,0.3,0,0.5-0.1c0.2,0,0.3-0.1,0.4-0.2
			c0.1-0.1,0.2-0.2,0.3-0.3c0.1-0.1,0.1-0.3,0.1-0.4c0-0.2,0-0.3-0.1-0.4c-0.1-0.1-0.2-0.2-0.3-0.3c-0.1-0.1-0.3-0.1-0.5-0.2
			c-0.2,0-0.4-0.1-0.5-0.1c-0.2-0.1-0.4-0.1-0.5-0.2c-0.2-0.1-0.3-0.2-0.5-0.3c-0.1-0.1-0.2-0.3-0.3-0.4c-0.1-0.2-0.1-0.4-0.1-0.6
			c0-0.3,0.1-0.6,0.2-0.8c0.1-0.2,0.3-0.4,0.5-0.5c0.2-0.1,0.4-0.2,0.5-0.3C79,53.1,79.1,53.1,79.2,53.1z"/>
	</g>
</g>
<g>
	<linearGradient id="SVGID_17_" gradientUnits="userSpaceOnUse" x1="84.2552" y1="81.5407" x2="90.9679" y2="81.5407">
		<stop  offset="0" style="stop-color:#D9BE7A"/>
		<stop  offset="0.4815" style="stop-color:#B49154"/>
		<stop  offset="1" style="stop-color:#9E753E"/>
	</linearGradient>
	<path class="st18" d="M91,81.5c0,1.9-1.5,3.3-3.3,3.3c-1.9,0-3.4-1.5-3.4-3.3c0-1.8,1.5-3.3,3.4-3.3C89.5,78.3,91,79.7,91,81.5z
		 M85.1,81.5c0,1.5,1.1,2.6,2.5,2.6c1.4,0,2.5-1.2,2.5-2.6c0-1.5-1.1-2.6-2.5-2.6C86.2,78.9,85.1,80.1,85.1,81.5z M87.1,83.2h-0.8
		V80c0.3-0.1,0.7-0.1,1.3-0.1c0.6,0,0.9,0.1,1.1,0.2c0.2,0.1,0.3,0.4,0.3,0.7c0,0.4-0.3,0.6-0.7,0.8v0c0.3,0.1,0.5,0.4,0.6,0.8
		c0.1,0.5,0.2,0.7,0.2,0.8h-0.8c-0.1-0.1-0.2-0.4-0.3-0.8c-0.1-0.4-0.3-0.5-0.7-0.5h-0.4V83.2z M87.1,81.4h0.4
		c0.4,0,0.8-0.1,0.8-0.5c0-0.3-0.2-0.5-0.7-0.5c-0.2,0-0.3,0-0.4,0V81.4z"/>
</g>
</svg>
