<?xml version="1.0" encoding="utf-8"?>
<!-- Generator: Adobe Illustrator 19.2.1, SVG Export Plug-In . SVG Version: 6.00 Build 0)  -->
<svg version="1.1" id="Layer_1" xmlns="http://www.w3.org/2000/svg" xmlns:xlink="http://www.w3.org/1999/xlink" x="0px" y="0px"
	 viewBox="0 0 100 100" style="enable-background:new 0 0 100 100;" xml:space="preserve">
<style type="text/css">
	.st0{fill:none;stroke:#FFFFFF;stroke-width:0.3046;stroke-miterlimit:10;}
	.st1{fill:#FFFFFF;}
</style>
<g>
	<rect x="10.4" y="52.2" class="st0" width="83.1" height="12.2"/>
	<polyline class="st0" points="23.5,51 45.5,13 67.5,51.1 	"/>
	<polyline class="st0" points="83.7,79.1 7.3,79.1 15.1,65.6 	"/>
	<polyline class="st0" points="86,65.4 93.9,79.1 17.5,79.1 	"/>
	<polyline class="st0" points="33.7,51 55.7,13 77.6,51 	"/>
	<polyline class="st0" points="75.8,65.4 89,88.3 12.6,88.3 25.7,65.6 	"/>
	<g>
		<path class="st1" d="M42.9,47.9c0,0,0-0.1,0-0.3c0-0.1,0-0.2,0-0.3s0-0.1,0-0.2c0-0.1,0-0.2,0-0.2c0-0.2,0-0.4,0-0.6
			c0-0.2,0.1-0.4,0.1-0.7c0.1-0.2,0.1-0.5,0.2-0.8c0-0.1,0.1-0.3,0.2-0.4c0.1-0.1,0.1-0.3,0.2-0.4c0.1-0.1,0.1-0.3,0.2-0.4
			c0.1-0.1,0.1-0.3,0.2-0.4c0.2-0.3,0.4-0.6,0.6-0.8c0.4-0.6,1-1.1,1.7-1.5c0.2-0.1,0.3-0.2,0.5-0.3s0.4-0.2,0.5-0.3l0.3-0.1
			l0.3-0.1c0.2-0.1,0.4-0.2,0.6-0.2c0.8-0.2,1.6-0.4,2.5-0.4h0.6c0.1,0,0.2,0,0.3,0h0.3h0.3h0.2h0.2c0.2,0.1,0.4,0.1,0.6,0.2
			c0.2,0.1,0.4,0.1,0.6,0.2l0.3,0.1l0.3,0.1c0.2,0.1,0.4,0.2,0.5,0.3c0.2,0.1,0.3,0.2,0.5,0.3c0.6,0.5,1.2,1,1.7,1.5
			c0.2,0.3,0.4,0.6,0.6,0.8c0.1,0.1,0.2,0.3,0.2,0.4c0.1,0.1,0.2,0.3,0.2,0.4c0.1,0.1,0.1,0.3,0.2,0.4c0.1,0.1,0.1,0.3,0.2,0.4
			c0.1,0.3,0.2,0.5,0.2,0.8c0,0.2,0.1,0.5,0.1,0.7s0,0.4,0,0.6c0,0.1,0,0.2,0,0.2c0,0.1,0,0.2,0,0.2c0,0.1,0,0.3,0,0.3
			c0,0.2,0,0.3,0,0.3s0-0.1,0-0.3c0-0.1,0-0.2,0-0.3s0-0.1,0-0.2c0-0.1,0-0.2-0.1-0.2c0-0.2-0.1-0.4-0.1-0.6
			c-0.1-0.2-0.1-0.4-0.2-0.6c-0.1-0.2-0.2-0.4-0.3-0.7c-0.1-0.2-0.3-0.5-0.4-0.7c-0.1-0.1-0.2-0.2-0.2-0.4c-0.1-0.1-0.2-0.3-0.3-0.4
			c-0.2-0.2-0.4-0.5-0.6-0.7c-0.4-0.5-1-0.9-1.6-1.3c-0.6-0.4-1.3-0.7-2-0.9c-0.2,0-0.4-0.1-0.5-0.1h-0.1h-0.1h-0.3H52
			c-0.1,0-0.2,0-0.3,0h-0.6c-0.7,0-1.5,0.1-2.2,0.3s-1.4,0.5-2,0.9s-1.1,0.8-1.6,1.3c-0.2,0.2-0.4,0.5-0.6,0.7
			c-0.1,0.1-0.2,0.2-0.3,0.4c-0.1,0.1-0.2,0.2-0.2,0.4c-0.1,0.3-0.3,0.5-0.4,0.7c-0.1,0.2-0.2,0.5-0.3,0.7s-0.1,0.4-0.2,0.6
			c-0.1,0.2-0.1,0.4-0.1,0.5s0,0.2-0.1,0.2c0,0.1,0,0.1,0,0.2c0,0.1,0,0.2,0,0.3C42.9,47.8,42.9,47.9,42.9,47.9z"/>
		<path class="st1" d="M49,37.7C49,37.7,49,37.7,49,37.7c-0.2-0.2-0.3-0.3-0.4-0.4s-0.1-0.2-0.2-0.2c-0.1-0.1-0.1-0.2-0.2-0.3
			C48.1,36.6,48,36.3,48,36s0-0.7,0.1-1c0.1-0.4,0.3-0.7,0.5-1c0.1-0.1,0.1-0.2,0.2-0.2c0.1-0.1,0.1-0.1,0.2-0.2
			c0.2-0.1,0.3-0.3,0.5-0.3c0.4-0.2,0.8-0.3,1.3-0.3c0.4,0,0.9,0.1,1.3,0.3c0.4,0.2,0.7,0.5,1,0.8s0.4,0.7,0.5,1
			c0.1,0.4,0.1,0.7,0.1,1s-0.1,0.6-0.2,0.8c0,0.1-0.1,0.2-0.2,0.3c-0.1,0.1-0.1,0.2-0.2,0.2c-0.1,0.1-0.2,0.2-0.3,0.3
			s-0.1,0.1-0.1,0.1s0,0,0.1-0.1s0.1-0.2,0.2-0.3c0-0.1,0.1-0.2,0.1-0.3s0.1-0.2,0.1-0.3c0.1-0.2,0.1-0.5,0.1-0.8s-0.1-0.6-0.2-0.9
			c-0.1-0.3-0.3-0.6-0.5-0.8c-0.2-0.3-0.5-0.5-0.8-0.6s-0.7-0.2-1-0.2c-0.4,0-0.7,0.1-1,0.2c-0.1,0-0.2,0.1-0.2,0.1
			c-0.1,0-0.1,0.1-0.2,0.1c-0.1,0-0.1,0.1-0.2,0.2c-0.1,0-0.1,0.1-0.2,0.2c-0.2,0.3-0.4,0.5-0.5,0.8s-0.2,0.6-0.2,0.9
			c0,0.3,0,0.5,0.1,0.8c0,0.1,0.1,0.2,0.1,0.3s0.1,0.2,0.1,0.3c0.1,0.1,0.2,0.3,0.2,0.3C49,37.7,49,37.7,49,37.7z"/>
	</g>
	<g>
		<g>
			<path class="st1" d="M18.5,61.8l-0.4-0.9h-3.2l-0.4,0.9h-1l3-6.8l3,6.8H18.5z M15.4,59.9h2.3l-1.1-2.7L15.4,59.9z"/>
			<path class="st1" d="M24.5,59.3V55h1v6.8l-4.1-4.1v4.1h-1V55L24.5,59.3z"/>
			<path class="st1" d="M28.3,56h-1.9v-1h4.8v1h-1.9v5.8h-1C28.3,61.8,28.3,56,28.3,56z"/>
			<path class="st1" d="M33.3,61.8h-1V55h1V61.8z"/>
			<path class="st1" d="M34.4,61.8V55h4.2v0.9h-3.2V58H38v0.9h-2.6v2.9C35.4,61.8,34.4,61.8,34.4,61.8z"/>
			<path class="st1" d="M43,61.8l-1-2.3c-0.1,0-0.1,0-0.2,0s-0.1,0-0.2,0h-1.1v2.3h-1V55h1h1.1c0.1,0,0.3,0,0.4,0
				c0.2,0,0.3,0,0.5,0.1c0.2,0,0.3,0.1,0.5,0.2s0.3,0.2,0.4,0.4c0.1,0.2,0.2,0.4,0.3,0.6c0.1,0.3,0.1,0.6,0.1,1c0,0.3,0,0.6-0.1,0.8
				c0,0.2-0.1,0.4-0.2,0.6c-0.1,0.2-0.2,0.3-0.3,0.4c-0.1,0.1-0.2,0.2-0.4,0.3l1.2,2.5L43,61.8L43,61.8z M41.2,58.5
				c0.2,0,0.4,0,0.6,0c0.2,0,0.4,0,0.5-0.1c0.2-0.1,0.3-0.2,0.4-0.4c0.1-0.2,0.2-0.4,0.2-0.8s-0.1-0.6-0.2-0.8
				c-0.1-0.2-0.2-0.3-0.4-0.4c-0.1,0-0.3,0-0.5,0s-0.4,0-0.6,0h-0.7v2.5H41.2z"/>
			<path class="st1" d="M50,61.8l-0.4-0.9h-3.2L46,61.8h-1l3-6.8l3,6.8H50z M46.9,59.9h2.3L48,57.2L46.9,59.9z"/>
			<path class="st1" d="M51.9,55h1v4.4c0,0,0,0.1,0.1,0.3c0,0.2,0.1,0.3,0.2,0.5c0.1,0.2,0.3,0.3,0.5,0.4c0.2,0.1,0.5,0.2,0.8,0.2
				s0.6-0.1,0.8-0.2c0.2-0.1,0.4-0.3,0.5-0.4c0.1-0.2,0.2-0.3,0.2-0.5c0-0.1,0.1-0.2,0.1-0.3V55h1v4.4c0,0,0,0.1,0,0.2
				c0,0.1-0.1,0.3-0.1,0.5c-0.1,0.2-0.1,0.4-0.3,0.6c-0.1,0.2-0.3,0.4-0.4,0.5c-0.2,0.2-0.4,0.3-0.7,0.4c-0.3,0.1-0.6,0.2-1,0.2
				s-0.7-0.1-1-0.2c-0.3-0.1-0.5-0.2-0.7-0.4s-0.3-0.3-0.4-0.5c-0.1-0.2-0.2-0.4-0.3-0.5C52,60,52,59.9,52,59.7c0-0.1,0-0.2,0-0.3
				L51.9,55L51.9,55z"/>
			<path class="st1" d="M59.1,55c0.3,0,0.5,0,0.8,0s0.6,0,0.9,0.1c0.3,0.1,0.6,0.2,0.8,0.3c0.3,0.1,0.5,0.3,0.7,0.6s0.4,0.6,0.5,1
				s0.2,0.9,0.2,1.4c0,0.6-0.1,1-0.2,1.4c-0.1,0.4-0.3,0.7-0.5,1s-0.4,0.4-0.7,0.6c-0.3,0.1-0.5,0.2-0.8,0.3s-0.6,0.1-0.9,0.1
				c-0.3,0-0.6,0-0.8,0H58V55H59.1z M59.7,60.8c0.3,0,0.5,0,0.8-0.1c0.3,0,0.5-0.2,0.8-0.3c0.2-0.2,0.4-0.4,0.6-0.7
				c0.2-0.3,0.2-0.7,0.2-1.3c0-0.4,0-0.7-0.1-0.9c-0.1-0.3-0.2-0.5-0.3-0.7s-0.3-0.3-0.4-0.4c-0.2-0.1-0.3-0.2-0.5-0.3
				S60.4,56,60.3,56c-0.2,0-0.4,0-0.5,0H59v4.8H59.7z"/>
		</g>
		<g>
			<path class="st1" d="M65.2,55l2.7,3.1l2.7-3.1v6.8h-1v-4.2l-1.7,1.9l-1.7-1.9v4.2h-1V55z"/>
			<path class="st1" d="M72.7,61.8h-1V55h1V61.8z"/>
			<path class="st1" d="M77.7,59.3V55h1v6.8l-4.1-4.1v4.1h-1V55L77.7,59.3z"/>
			<path class="st1" d="M80.8,55c0.3,0,0.5,0,0.8,0s0.6,0,0.9,0.1s0.6,0.2,0.8,0.3c0.3,0.1,0.5,0.3,0.7,0.6s0.4,0.6,0.5,1
				s0.2,0.9,0.2,1.4c0,0.6-0.1,1-0.2,1.4s-0.3,0.7-0.5,1s-0.4,0.4-0.7,0.6c-0.3,0.1-0.5,0.2-0.8,0.3s-0.6,0.1-0.9,0.1s-0.6,0-0.8,0
				h-1.1V55H80.8z M81.4,60.8c0.3,0,0.5,0,0.8-0.1c0.3,0,0.5-0.2,0.8-0.3c0.2-0.2,0.4-0.4,0.6-0.7s0.2-0.7,0.2-1.3
				c0-0.4,0-0.7-0.1-0.9c-0.1-0.3-0.2-0.5-0.3-0.7c-0.1-0.2-0.3-0.3-0.4-0.4c-0.2-0.1-0.3-0.2-0.5-0.3S82.1,56,82,56
				c-0.2,0-0.4,0-0.5,0h-0.7v4.8H81.4z"/>
			<path class="st1" d="M88,55c0.2,0,0.5,0,0.7,0.1c0.2,0,0.4,0.1,0.5,0.2c0.2,0.1,0.3,0.1,0.4,0.2L89,56.3
				c-0.1-0.1-0.2-0.1-0.3-0.1c-0.1,0-0.2-0.1-0.3-0.1C88.3,56,88.1,56,88,56c-0.2,0-0.3,0-0.4,0.1s-0.2,0.1-0.3,0.2
				c-0.1,0.1-0.1,0.2-0.2,0.3c0,0.1-0.1,0.2-0.1,0.3c0,0.2,0.1,0.4,0.3,0.5c0.2,0.1,0.4,0.2,0.6,0.3c0.3,0.1,0.5,0.1,0.8,0.2
				c0.3,0.1,0.6,0.2,0.8,0.3c0.3,0.1,0.5,0.3,0.6,0.6c0.2,0.2,0.3,0.6,0.3,1c0,0.3-0.1,0.5-0.2,0.8s-0.3,0.5-0.5,0.7
				s-0.5,0.3-0.8,0.5c-0.3,0.1-0.7,0.2-1.1,0.2c-0.3,0-0.6,0-0.8-0.1c-0.2-0.1-0.5-0.1-0.6-0.2c-0.2-0.1-0.3-0.2-0.5-0.3
				c-0.1-0.1-0.3-0.2-0.4-0.3l0.5-0.9c0.4,0.3,0.7,0.5,1,0.6s0.6,0.2,0.8,0.2c0.2,0,0.4,0,0.5-0.1c0.2,0,0.3-0.1,0.5-0.2
				c0.1-0.1,0.3-0.2,0.4-0.3s0.1-0.3,0.1-0.5s0-0.4-0.1-0.5s-0.2-0.2-0.4-0.3c-0.2-0.1-0.3-0.2-0.5-0.2c-0.2-0.1-0.4-0.1-0.6-0.2
				c-0.2-0.1-0.4-0.1-0.6-0.2c-0.2-0.1-0.4-0.2-0.5-0.3c-0.2-0.1-0.3-0.3-0.4-0.5s-0.1-0.4-0.1-0.7s0.1-0.6,0.2-0.9
				c0.1-0.2,0.3-0.4,0.5-0.6c0.2-0.1,0.4-0.2,0.6-0.3C87.7,55,87.9,55,88,55z"/>
		</g>
	</g>
</g>
<g>
	<path class="st1" d="M96.4,89c0,1.7-1.3,3-3.1,3c-1.7,0-3.1-1.3-3.1-3s1.4-3,3.1-3C95.1,86,96.4,87.4,96.4,89z M91,89
		c0,1.3,1,2.4,2.3,2.4s2.3-1.1,2.3-2.4s-1-2.4-2.3-2.4S91,87.7,91,89z M92.9,90.6h-0.7v-3c0.3-0.1,0.7-0.1,1.2-0.1
		c0.6,0,0.8,0.1,1,0.2s0.3,0.4,0.3,0.7c0,0.3-0.3,0.6-0.6,0.7l0,0c0.3,0.1,0.5,0.3,0.5,0.7c0.1,0.5,0.1,0.6,0.2,0.8H94
		c-0.1-0.1-0.1-0.4-0.2-0.7c-0.1-0.3-0.2-0.5-0.6-0.5h-0.3V90.6z M92.9,88.9h0.3c0.4,0,0.7-0.1,0.7-0.4S93.7,88,93.3,88
		c-0.2,0-0.3,0-0.4,0V88.9z"/>
</g>
</svg>
