<?xml version="1.0" encoding="utf-8"?>
<!-- Generator: Adobe Illustrator 19.2.1, SVG Export Plug-In . SVG Version: 6.00 Build 0)  -->
<svg version="1.1" id="Layer_1" xmlns="http://www.w3.org/2000/svg" xmlns:xlink="http://www.w3.org/1999/xlink" x="0px" y="0px"
	 viewBox="0 0 100 100" style="enable-background:new 0 0 100 100;" xml:space="preserve">
<style type="text/css">
	.st0{fill:none;stroke:#D9BE7A;stroke-width:2;stroke-miterlimit:10;}
	.st1{fill:url(#SVGID_1_);}
	.st2{fill:url(#SVGID_2_);}
</style>
<polyline class="st0" points="85.2,79.7 4,79.7 12.3,65.3 21.2,49.8 44.6,9.3 68,49.9 85.2,79.7 "/>
<polyline class="st0" points="14.8,79.7 96,79.7 87.6,65.1 78.8,49.8 55.4,9.3 32,49.8 23.6,65.3 9.6,89.5 90.9,89.5 76.8,65.1 "/>
<g>
	<linearGradient id="SVGID_1_" gradientUnits="userSpaceOnUse" x1="29.8641" y1="65.4663" x2="70.3686" y2="65.4663">
		<stop  offset="0" style="stop-color:#D7BD7A"/>
		<stop  offset="0.4815" style="stop-color:#B39054"/>
		<stop  offset="1" style="stop-color:#9C753E"/>
	</linearGradient>
	<path class="st1" d="M29.9,76.2c0,0,0-0.2,0-0.7c0-0.2,0-0.5,0-0.9c0-0.2,0-0.3,0-0.5c0-0.2,0-0.4,0-0.6c0-0.4,0.1-0.9,0.1-1.5
		c0.1-0.5,0.2-1.1,0.3-1.7c0.1-0.6,0.3-1.2,0.5-1.9c0.1-0.3,0.3-0.7,0.4-1c0.1-0.3,0.3-0.7,0.4-1c0.2-0.3,0.4-0.7,0.6-1
		c0.2-0.3,0.4-0.7,0.6-1.1c0.5-0.7,0.9-1.4,1.5-2.1c1.1-1.4,2.5-2.6,4.1-3.8c0.4-0.3,0.8-0.5,1.2-0.8c0.4-0.3,0.9-0.5,1.3-0.7
		l0.7-0.3l0.7-0.3c0.5-0.2,1-0.4,1.4-0.5c2-0.6,4.1-0.9,6.2-1l1.5,0.1c0.3,0,0.5,0,0.8,0.1l0.8,0.1l0.8,0.1l0.4,0.1l0.4,0.1
		c0.5,0.1,1,0.3,1.5,0.4c0.5,0.1,1,0.4,1.4,0.5l0.7,0.3l0.7,0.3c0.4,0.2,0.9,0.4,1.3,0.7c0.4,0.3,0.8,0.5,1.2,0.8
		c1.6,1.1,3,2.4,4.1,3.8c0.6,0.7,1.1,1.4,1.5,2.1c0.2,0.3,0.4,0.7,0.6,1.1c0.2,0.4,0.4,0.7,0.6,1c0.2,0.4,0.3,0.7,0.4,1
		c0.1,0.3,0.3,0.7,0.4,1c0.2,0.7,0.4,1.3,0.5,1.9c0.1,0.6,0.2,1.2,0.3,1.7c0.1,0.5,0.1,1,0.1,1.5c0,0.2,0,0.4,0,0.6
		c0,0.2,0,0.4,0,0.5c0,0.3,0,0.6,0,0.9c0,0.5,0,0.7,0,0.7s0-0.2-0.1-0.7c0-0.2-0.1-0.5-0.1-0.8c0-0.2,0-0.3-0.1-0.5
		c0-0.2-0.1-0.4-0.1-0.6c-0.1-0.4-0.2-0.9-0.3-1.4c-0.2-0.5-0.3-1-0.5-1.6c-0.2-0.6-0.5-1.1-0.7-1.7c-0.3-0.6-0.6-1.2-1-1.8
		c-0.2-0.3-0.4-0.6-0.6-0.9c-0.2-0.3-0.4-0.6-0.7-0.9c-0.5-0.6-1-1.2-1.6-1.8c-1.1-1.2-2.5-2.2-3.9-3.2c-1.5-0.9-3.2-1.6-4.9-2.2
		c-0.4-0.1-0.9-0.2-1.3-0.3l-0.3-0.1l-0.3,0l-0.7-0.1l-0.7-0.1c-0.2,0-0.5,0-0.7,0l-1.4-0.1c-1.9,0-3.7,0.3-5.5,0.8
		c-1.7,0.5-3.4,1.2-4.9,2.2c-1.5,1-2.8,2-3.9,3.2c-0.6,0.6-1.1,1.2-1.6,1.8c-0.3,0.3-0.4,0.6-0.7,0.9c-0.2,0.3-0.4,0.6-0.6,0.9
		c-0.3,0.6-0.7,1.2-1,1.8c-0.3,0.6-0.5,1.2-0.7,1.7c-0.2,0.6-0.4,1.1-0.5,1.6c-0.1,0.5-0.2,1-0.3,1.4c0,0.2-0.1,0.4-0.1,0.6
		c0,0.2-0.1,0.4-0.1,0.5c0,0.3-0.1,0.6-0.1,0.9C30,75.9,29.9,76.2,29.9,76.2z"/>
	<linearGradient id="SVGID_2_" gradientUnits="userSpaceOnUse" x1="42.9781" y1="44.7575" x2="57.2582" y2="44.7575">
		<stop  offset="0" style="stop-color:#D7BD7A"/>
		<stop  offset="0.4815" style="stop-color:#B39054"/>
		<stop  offset="1" style="stop-color:#9C753E"/>
	</linearGradient>
	<path class="st2" d="M45.3,50.8c0,0-0.1-0.1-0.3-0.2c-0.2-0.1-0.4-0.4-0.7-0.7c-0.1-0.2-0.3-0.4-0.4-0.6c-0.1-0.2-0.3-0.5-0.4-0.8
		c-0.3-0.6-0.5-1.3-0.5-2.1c-0.1-0.8,0-1.7,0.2-2.5c0.2-0.9,0.7-1.8,1.3-2.6c0.2-0.2,0.3-0.4,0.5-0.6c0.2-0.2,0.3-0.3,0.6-0.5
		c0.4-0.3,0.9-0.6,1.4-0.9c1-0.5,2-0.7,3.1-0.7c1.1,0,2.2,0.3,3.1,0.7c1,0.4,1.8,1.2,2.4,1.9c0.7,0.8,1.1,1.7,1.3,2.6
		c0.2,0.9,0.3,1.8,0.2,2.5c-0.1,0.8-0.3,1.5-0.5,2.1c-0.1,0.3-0.3,0.5-0.4,0.8c-0.1,0.2-0.3,0.4-0.4,0.6c-0.3,0.3-0.5,0.6-0.7,0.7
		c-0.2,0.2-0.3,0.2-0.3,0.2s0.1-0.1,0.2-0.3c0.1-0.2,0.3-0.5,0.5-0.8c0.1-0.2,0.2-0.4,0.3-0.6c0.1-0.2,0.2-0.5,0.3-0.8
		c0.2-0.6,0.3-1.2,0.3-1.9c0-0.7-0.1-1.5-0.4-2.2c-0.3-0.7-0.7-1.5-1.3-2.1c-0.6-0.7-1.3-1.2-2.1-1.5C51.9,40.2,51,40,50.1,40
		c-0.9,0-1.8,0.2-2.6,0.6c-0.2,0.1-0.4,0.2-0.6,0.3c-0.2,0.1-0.4,0.2-0.5,0.3c-0.2,0.1-0.4,0.3-0.5,0.4c-0.1,0.1-0.3,0.3-0.4,0.4
		c-0.6,0.6-1,1.4-1.3,2.1c-0.3,0.7-0.4,1.5-0.4,2.2c0,0.7,0.1,1.4,0.3,1.9c0.1,0.3,0.2,0.5,0.3,0.8c0.1,0.2,0.2,0.4,0.3,0.6
		c0.2,0.4,0.4,0.7,0.5,0.8C45.3,50.7,45.3,50.8,45.3,50.8z"/>
</g>
</svg>
