<?xml version="1.0" encoding="utf-8"?>
<!-- Generator: Adobe Illustrator 19.2.1, SVG Export Plug-In . SVG Version: 6.00 Build 0)  -->
<svg version="1.1" id="Layer_1" xmlns="http://www.w3.org/2000/svg" xmlns:xlink="http://www.w3.org/1999/xlink" x="0px" y="0px"
	 viewBox="0 0 100 100" style="enable-background:new 0 0 100 100;" xml:space="preserve">
<style type="text/css">
	.st0{fill:none;stroke:#FFFFFF;stroke-width:2;stroke-miterlimit:10;}
	.st1{fill:#FFFFFF;}
</style>
<polyline class="st0" points="85.2,79.7 4,79.7 12.3,65.3 21.2,49.8 44.6,9.3 68,49.9 85.2,79.7 "/>
<polyline class="st0" points="14.8,79.7 96,79.7 87.6,65.1 78.8,49.8 55.4,9.3 32,49.8 23.6,65.3 9.6,89.5 90.9,89.5 76.8,65.1 "/>
<g>
	<path class="st1" d="M30.4,75.6c0,0,0-0.2,0-0.7c0-0.2,0-0.5,0-0.8c0-0.2,0-0.3,0-0.5s0-0.4,0-0.6c0-0.4,0.1-0.9,0.1-1.4
		c0.1-0.5,0.2-1.1,0.3-1.7c0.1-0.6,0.3-1.2,0.5-1.9c0.1-0.3,0.2-0.7,0.4-1c0.1-0.3,0.3-0.7,0.4-1c0.2-0.3,0.4-0.7,0.5-1
		c0.2-0.3,0.4-0.7,0.6-1.1c0.5-0.7,0.9-1.4,1.5-2.1c1.1-1.4,2.5-2.6,4.1-3.7c0.4-0.3,0.8-0.5,1.2-0.8s0.9-0.5,1.3-0.7l0.7-0.3
		l0.7-0.3c0.5-0.2,0.9-0.4,1.4-0.5c2-0.6,4-0.9,6.1-0.9l1.5,0.1c0.2,0,0.5,0,0.7,0.1l0.8,0.1L54,55l0.4,0.1l0.4,0.1
		c0.5,0.1,1,0.3,1.5,0.4c0.5,0.1,1,0.3,1.4,0.5l0.7,0.3l0.7,0.3c0.4,0.2,0.9,0.4,1.3,0.7c0.4,0.3,0.8,0.5,1.2,0.8
		c1.6,1.1,3,2.4,4.1,3.7c0.6,0.7,1,1.4,1.5,2.1c0.2,0.3,0.4,0.7,0.6,1.1s0.4,0.7,0.5,1s0.3,0.7,0.4,1s0.3,0.7,0.4,1
		c0.2,0.7,0.4,1.3,0.5,1.9s0.2,1.2,0.3,1.7c0.1,0.5,0.1,1,0.1,1.4c0,0.2,0,0.4,0,0.6s0,0.4,0,0.5c0,0.3,0,0.6,0,0.9
		c0,0.5,0,0.7,0,0.7s0-0.2-0.1-0.7c0-0.2-0.1-0.5-0.1-0.8c0-0.2,0-0.3-0.1-0.5c0-0.2-0.1-0.4-0.1-0.6c-0.1-0.4-0.2-0.9-0.3-1.4
		c-0.2-0.5-0.3-1-0.5-1.6s-0.5-1.1-0.7-1.7c-0.3-0.6-0.6-1.2-1-1.8c-0.2-0.3-0.4-0.6-0.6-0.9s-0.4-0.6-0.7-0.9
		c-0.5-0.6-0.9-1.2-1.5-1.8c-1.1-1.2-2.4-2.2-3.9-3.2c-1.5-0.9-3.1-1.6-4.9-2.2c-0.4-0.1-0.9-0.2-1.3-0.3l-0.3-0.1h-0.3L53.2,57
		l-0.7-0.1c-0.2,0-0.5,0-0.7,0l-1.4-0.1c-1.8,0-3.7,0.3-5.4,0.8s-3.4,1.2-4.9,2.2c-1.5,0.9-2.8,2-3.9,3.2c-0.6,0.5-1,1.2-1.5,1.8
		c-0.3,0.3-0.4,0.6-0.6,0.9c-0.2,0.3-0.4,0.6-0.6,0.9c-0.3,0.6-0.7,1.2-1,1.8c-0.3,0.6-0.5,1.2-0.7,1.7c-0.2,0.6-0.3,1.1-0.5,1.6
		c-0.1,0.5-0.2,0.9-0.3,1.4c0,0.2-0.1,0.4-0.1,0.6s-0.1,0.4-0.1,0.5c0,0.3-0.1,0.6-0.1,0.8C30.4,75.3,30.4,75.6,30.4,75.6z"/>
	<path class="st1" d="M45.7,50.5c0,0-0.1-0.1-0.3-0.2c-0.2-0.1-0.4-0.4-0.7-0.7c-0.1-0.2-0.3-0.4-0.4-0.6c-0.1-0.2-0.3-0.5-0.4-0.8
		c-0.3-0.6-0.5-1.3-0.5-2c-0.1-0.8,0-1.6,0.2-2.5s0.7-1.8,1.3-2.5c0.2-0.2,0.3-0.4,0.5-0.6c0.2-0.2,0.3-0.3,0.5-0.5
		c0.4-0.3,0.9-0.6,1.3-0.8c1-0.5,2-0.7,3.1-0.7s2.1,0.3,3.1,0.7s1.8,1.1,2.4,1.9c0.7,0.8,1.1,1.7,1.3,2.5c0.2,0.9,0.3,1.7,0.2,2.5
		s-0.3,1.5-0.5,2c-0.1,0.3-0.3,0.5-0.4,0.8c-0.1,0.2-0.3,0.4-0.4,0.6c-0.3,0.3-0.5,0.6-0.7,0.7c-0.2,0.2-0.3,0.2-0.3,0.2
		s0.1-0.1,0.2-0.3c0.1-0.2,0.3-0.5,0.5-0.8c0.1-0.2,0.2-0.4,0.3-0.6c0.1-0.2,0.2-0.5,0.3-0.8c0.2-0.6,0.3-1.2,0.3-1.9
		s-0.1-1.4-0.4-2.2c-0.3-0.7-0.7-1.5-1.2-2.1c-0.6-0.7-1.3-1.2-2.1-1.5c-0.8-0.4-1.7-0.6-2.6-0.6c-0.9,0-1.8,0.2-2.6,0.6
		c-0.2,0.1-0.4,0.2-0.6,0.3c-0.2,0.1-0.4,0.2-0.5,0.3c-0.2,0.1-0.4,0.3-0.5,0.4c-0.1,0.1-0.3,0.3-0.4,0.4c-0.6,0.6-1,1.3-1.3,2.1
		C44.1,44.5,44,45.3,44,46s0.1,1.3,0.3,1.9c0.1,0.3,0.2,0.5,0.3,0.8c0.1,0.2,0.2,0.4,0.3,0.6c0.2,0.4,0.4,0.7,0.5,0.8
		C45.6,50.4,45.7,50.5,45.7,50.5z"/>
</g>
</svg>
