<?xml version="1.0" encoding="utf-8"?>
<!-- Generator: Adobe Illustrator 18.1.1, SVG Export Plug-In . SVG Version: 6.00 Build 0)  -->
<svg version="1.1" id="Layer_1" xmlns="http://www.w3.org/2000/svg" xmlns:xlink="http://www.w3.org/1999/xlink" x="0px" y="0px"
	 viewBox="0 0 50 50" enable-background="new 0 0 50 50" xml:space="preserve">
<rect x="6.5" y="7.7" fill="#020202" width="37" height="34.6"/>
<g>
	<g>
		<g>
			
				<linearGradient id="SVGID_1_" gradientUnits="userSpaceOnUse" x1="150.7242" y1="-2459.0276" x2="174.5554" y2="-2417.7505" gradientTransform="matrix(4.084984e-02 0 0 4.084984e-02 8.8235 126.2523)">
				<stop  offset="0" style="stop-color:#535454"/>
				<stop  offset="0.1344" style="stop-color:#E5E5E5"/>
				<stop  offset="0.2527" style="stop-color:#B9B9B9"/>
				<stop  offset="0.4493" style="stop-color:#FFFFFF"/>
				<stop  offset="0.6935" style="stop-color:#A8A7A8"/>
				<stop  offset="0.8387" style="stop-color:#CFCFCE"/>
				<stop  offset="1" style="stop-color:#535454"/>
			</linearGradient>
			<path fill="url(#SVGID_1_)" d="M16.2,27.2L16.1,27h-0.8l-0.1,0.2h-0.3l0.8-1.8l0.8,1.8H16.2z M15.4,26.7H16L15.7,26L15.4,26.7z"
				/>
			
				<linearGradient id="SVGID_2_" gradientUnits="userSpaceOnUse" x1="195.2769" y1="-2470.1785" x2="222.406" y2="-2423.1895" gradientTransform="matrix(4.084984e-02 0 0 4.084984e-02 8.8235 126.2523)">
				<stop  offset="0" style="stop-color:#535454"/>
				<stop  offset="0.1344" style="stop-color:#E5E5E5"/>
				<stop  offset="0.2527" style="stop-color:#B9B9B9"/>
				<stop  offset="0.4493" style="stop-color:#FFFFFF"/>
				<stop  offset="0.6935" style="stop-color:#A8A7A8"/>
				<stop  offset="0.8387" style="stop-color:#CFCFCE"/>
				<stop  offset="1" style="stop-color:#535454"/>
			</linearGradient>
			<path fill="url(#SVGID_2_)" d="M17.8,26.5v-1.1H18v1.8L17,26.1v1.1h-0.3v-1.8L17.8,26.5z"/>
			
				<linearGradient id="SVGID_3_" gradientUnits="userSpaceOnUse" x1="237.9502" y1="-2472.5784" x2="261.6787" y2="-2431.479" gradientTransform="matrix(4.084984e-02 0 0 4.084984e-02 8.8235 126.2523)">
				<stop  offset="0" style="stop-color:#535454"/>
				<stop  offset="0.1344" style="stop-color:#E5E5E5"/>
				<stop  offset="0.2527" style="stop-color:#B9B9B9"/>
				<stop  offset="0.4493" style="stop-color:#FFFFFF"/>
				<stop  offset="0.6935" style="stop-color:#A8A7A8"/>
				<stop  offset="0.8387" style="stop-color:#CFCFCE"/>
				<stop  offset="1" style="stop-color:#535454"/>
			</linearGradient>
			<path fill="url(#SVGID_3_)" d="M18.8,25.7h-0.5v-0.3h1.3v0.3H19v1.5h-0.3L18.8,25.7L18.8,25.7z"/>
			
				<linearGradient id="SVGID_4_" gradientUnits="userSpaceOnUse" x1="261.5883" y1="-2464.5244" x2="282.1972" y2="-2428.8286" gradientTransform="matrix(4.084984e-02 0 0 4.084984e-02 8.8235 126.2523)">
				<stop  offset="0" style="stop-color:#535454"/>
				<stop  offset="0.1344" style="stop-color:#E5E5E5"/>
				<stop  offset="0.2527" style="stop-color:#B9B9B9"/>
				<stop  offset="0.4493" style="stop-color:#FFFFFF"/>
				<stop  offset="0.6935" style="stop-color:#A8A7A8"/>
				<stop  offset="0.8387" style="stop-color:#CFCFCE"/>
				<stop  offset="1" style="stop-color:#535454"/>
			</linearGradient>
			<path fill="url(#SVGID_4_)" d="M20.1,27.2h-0.3v-1.8h0.3L20.1,27.2L20.1,27.2z"/>
			
				<linearGradient id="SVGID_5_" gradientUnits="userSpaceOnUse" x1="282.7857" y1="-2468.9722" x2="303.4086" y2="-2433.2524" gradientTransform="matrix(4.084984e-02 0 0 4.084984e-02 8.8235 126.2523)">
				<stop  offset="0" style="stop-color:#535454"/>
				<stop  offset="0.1344" style="stop-color:#E5E5E5"/>
				<stop  offset="0.2527" style="stop-color:#B9B9B9"/>
				<stop  offset="0.4493" style="stop-color:#FFFFFF"/>
				<stop  offset="0.6935" style="stop-color:#A8A7A8"/>
				<stop  offset="0.8387" style="stop-color:#CFCFCE"/>
				<stop  offset="1" style="stop-color:#535454"/>
			</linearGradient>
			<path fill="url(#SVGID_5_)" d="M20.4,27.2v-1.8h1.1v0.2h-0.8v0.5h0.7v0.2h-0.7v0.8L20.4,27.2L20.4,27.2z"/>
			
				<linearGradient id="SVGID_6_" gradientUnits="userSpaceOnUse" x1="314.6953" y1="-2468.0496" x2="341.0425" y2="-2422.4148" gradientTransform="matrix(4.084984e-02 0 0 4.084984e-02 8.8235 126.2523)">
				<stop  offset="0" style="stop-color:#535454"/>
				<stop  offset="0.1344" style="stop-color:#E5E5E5"/>
				<stop  offset="0.2527" style="stop-color:#B9B9B9"/>
				<stop  offset="0.4493" style="stop-color:#FFFFFF"/>
				<stop  offset="0.6935" style="stop-color:#A8A7A8"/>
				<stop  offset="0.8387" style="stop-color:#CFCFCE"/>
				<stop  offset="1" style="stop-color:#535454"/>
			</linearGradient>
			<path fill="url(#SVGID_6_)" d="M22.6,27.2l-0.3-0.6c0,0,0,0,0,0c0,0,0,0,0,0H22v0.6h-0.3v-1.8H22h0.3c0,0,0.1,0,0.1,0
				c0,0,0.1,0,0.1,0c0,0,0.1,0,0.1,0.1c0,0,0.1,0.1,0.1,0.1c0,0,0.1,0.1,0.1,0.2c0,0.1,0,0.2,0,0.2c0,0.1,0,0.1,0,0.2
				c0,0.1,0,0.1-0.1,0.2c0,0,0,0.1-0.1,0.1c0,0-0.1,0.1-0.1,0.1l0.3,0.7L22.6,27.2C22.6,27.2,22.6,27.2,22.6,27.2z M22.2,26.3
				c0,0,0.1,0,0.2,0c0.1,0,0.1,0,0.1,0c0,0,0.1-0.1,0.1-0.1c0,0,0-0.1,0-0.2s0-0.2,0-0.2c0,0-0.1-0.1-0.1-0.1c0,0-0.1,0-0.1,0
				c-0.1,0-0.1,0-0.2,0H22v0.7L22.2,26.3L22.2,26.3L22.2,26.3z"/>
			
				<linearGradient id="SVGID_7_" gradientUnits="userSpaceOnUse" x1="353.5341" y1="-2458.9619" x2="377.3707" y2="-2417.6755" gradientTransform="matrix(4.084984e-02 0 0 4.084984e-02 8.8235 126.2523)">
				<stop  offset="0" style="stop-color:#535454"/>
				<stop  offset="0.1344" style="stop-color:#E5E5E5"/>
				<stop  offset="0.2527" style="stop-color:#B9B9B9"/>
				<stop  offset="0.4493" style="stop-color:#FFFFFF"/>
				<stop  offset="0.6935" style="stop-color:#A8A7A8"/>
				<stop  offset="0.8387" style="stop-color:#CFCFCE"/>
				<stop  offset="1" style="stop-color:#535454"/>
			</linearGradient>
			<path fill="url(#SVGID_7_)" d="M24.5,27.2L24.4,27h-0.8l-0.1,0.2h-0.3l0.8-1.8l0.8,1.8H24.5z M23.6,26.7h0.6L24,26L23.6,26.7z"/>
			
				<linearGradient id="SVGID_8_" gradientUnits="userSpaceOnUse" x1="400.5423" y1="-2471.6062" x2="424.8722" y2="-2429.4658" gradientTransform="matrix(4.084984e-02 0 0 4.084984e-02 8.8235 126.2523)">
				<stop  offset="0" style="stop-color:#535454"/>
				<stop  offset="0.1344" style="stop-color:#E5E5E5"/>
				<stop  offset="0.2527" style="stop-color:#B9B9B9"/>
				<stop  offset="0.4493" style="stop-color:#FFFFFF"/>
				<stop  offset="0.6935" style="stop-color:#A8A7A8"/>
				<stop  offset="0.8387" style="stop-color:#CFCFCE"/>
				<stop  offset="1" style="stop-color:#535454"/>
			</linearGradient>
			<path fill="url(#SVGID_8_)" d="M25,25.4h0.3v1.2c0,0,0,0,0,0.1c0,0,0,0.1,0.1,0.1c0,0,0.1,0.1,0.1,0.1c0.1,0,0.1,0,0.2,0
				s0.2,0,0.2,0c0.1,0,0.1-0.1,0.1-0.1s0-0.1,0.1-0.1c0,0,0-0.1,0-0.1v-1.2h0.3v1.2c0,0,0,0,0,0.1c0,0,0,0.1,0,0.1
				c0,0,0,0.1-0.1,0.1c0,0.1-0.1,0.1-0.1,0.1c0,0-0.1,0.1-0.2,0.1c-0.1,0-0.2,0-0.3,0c-0.1,0-0.2,0-0.3,0c-0.1,0-0.1-0.1-0.2-0.1
				c0,0-0.1-0.1-0.1-0.1c0,0-0.1-0.1-0.1-0.1s0-0.1,0-0.1c0,0,0-0.1,0-0.1L25,25.4L25,25.4L25,25.4z"/>
			
				<linearGradient id="SVGID_9_" gradientUnits="userSpaceOnUse" x1="434.2429" y1="-2468.4353" x2="457.9692" y2="-2427.3401" gradientTransform="matrix(4.084984e-02 0 0 4.084984e-02 8.8235 126.2523)">
				<stop  offset="0" style="stop-color:#535454"/>
				<stop  offset="0.1344" style="stop-color:#E5E5E5"/>
				<stop  offset="0.2527" style="stop-color:#B9B9B9"/>
				<stop  offset="0.4493" style="stop-color:#FFFFFF"/>
				<stop  offset="0.6935" style="stop-color:#A8A7A8"/>
				<stop  offset="0.8387" style="stop-color:#CFCFCE"/>
				<stop  offset="1" style="stop-color:#535454"/>
			</linearGradient>
			<path fill="url(#SVGID_9_)" d="M26.9,25.4c0.1,0,0.1,0,0.2,0c0.1,0,0.2,0,0.2,0c0.1,0,0.2,0,0.2,0.1c0.1,0,0.1,0.1,0.2,0.2
				c0.1,0.1,0.1,0.2,0.1,0.3c0,0.1,0,0.2,0,0.4c0,0.1,0,0.3,0,0.4c0,0.1-0.1,0.2-0.1,0.3c-0.1,0.1-0.1,0.1-0.2,0.2
				c-0.1,0-0.1,0.1-0.2,0.1c-0.1,0-0.2,0-0.2,0c-0.1,0-0.2,0-0.2,0h-0.3v-1.8C26.6,25.4,26.9,25.4,26.9,25.4z M27,26.9
				c0.1,0,0.1,0,0.2,0c0.1,0,0.1,0,0.2-0.1c0.1,0,0.1-0.1,0.2-0.2c0-0.1,0.1-0.2,0.1-0.3c0-0.1,0-0.2,0-0.2c0-0.1,0-0.1-0.1-0.2
				c0,0-0.1-0.1-0.1-0.1c0,0-0.1-0.1-0.1-0.1c0,0-0.1,0-0.1,0c0,0-0.1,0-0.1,0h-0.2v1.3L27,26.9L27,26.9L27,26.9z"/>
		</g>
		<g>
			
				<linearGradient id="SVGID_10_" gradientUnits="userSpaceOnUse" x1="484.3317" y1="-2470.7415" x2="512.1018" y2="-2422.6426" gradientTransform="matrix(4.084984e-02 0 0 4.084984e-02 8.8235 126.2523)">
				<stop  offset="0" style="stop-color:#535454"/>
				<stop  offset="0.1344" style="stop-color:#E5E5E5"/>
				<stop  offset="0.2527" style="stop-color:#B9B9B9"/>
				<stop  offset="0.4493" style="stop-color:#FFFFFF"/>
				<stop  offset="0.6935" style="stop-color:#A8A7A8"/>
				<stop  offset="0.8387" style="stop-color:#CFCFCE"/>
				<stop  offset="1" style="stop-color:#535454"/>
			</linearGradient>
			<path fill="url(#SVGID_10_)" d="M28.5,25.4l0.7,0.8l0.7-0.8v1.8h-0.3v-1.1l-0.4,0.5l-0.5-0.5v1.1h-0.3V25.4z"/>
			
				<linearGradient id="SVGID_11_" gradientUnits="userSpaceOnUse" x1="515.2908" y1="-2464.5244" x2="535.8945" y2="-2428.8381" gradientTransform="matrix(4.084984e-02 0 0 4.084984e-02 8.8235 126.2523)">
				<stop  offset="0" style="stop-color:#535454"/>
				<stop  offset="0.1344" style="stop-color:#E5E5E5"/>
				<stop  offset="0.2527" style="stop-color:#B9B9B9"/>
				<stop  offset="0.4493" style="stop-color:#FFFFFF"/>
				<stop  offset="0.6935" style="stop-color:#A8A7A8"/>
				<stop  offset="0.8387" style="stop-color:#CFCFCE"/>
				<stop  offset="1" style="stop-color:#535454"/>
			</linearGradient>
			<path fill="url(#SVGID_11_)" d="M30.4,27.2h-0.3v-1.8h0.3V27.2z"/>
			
				<linearGradient id="SVGID_12_" gradientUnits="userSpaceOnUse" x1="537.973" y1="-2470.1785" x2="565.1022" y2="-2423.1895" gradientTransform="matrix(4.084984e-02 0 0 4.084984e-02 8.8235 126.2523)">
				<stop  offset="0" style="stop-color:#535454"/>
				<stop  offset="0.1344" style="stop-color:#E5E5E5"/>
				<stop  offset="0.2527" style="stop-color:#B9B9B9"/>
				<stop  offset="0.4493" style="stop-color:#FFFFFF"/>
				<stop  offset="0.6935" style="stop-color:#A8A7A8"/>
				<stop  offset="0.8387" style="stop-color:#CFCFCE"/>
				<stop  offset="1" style="stop-color:#535454"/>
			</linearGradient>
			<path fill="url(#SVGID_12_)" d="M31.8,26.5v-1.1H32v1.8L31,26.1v1.1h-0.3v-1.8L31.8,26.5z"/>
			
				<linearGradient id="SVGID_13_" gradientUnits="userSpaceOnUse" x1="574.0373" y1="-2468.4353" x2="597.7634" y2="-2427.3406" gradientTransform="matrix(4.084984e-02 0 0 4.084984e-02 8.8235 126.2523)">
				<stop  offset="0" style="stop-color:#535454"/>
				<stop  offset="0.1344" style="stop-color:#E5E5E5"/>
				<stop  offset="0.2527" style="stop-color:#B9B9B9"/>
				<stop  offset="0.4493" style="stop-color:#FFFFFF"/>
				<stop  offset="0.6935" style="stop-color:#A8A7A8"/>
				<stop  offset="0.8387" style="stop-color:#CFCFCE"/>
				<stop  offset="1" style="stop-color:#535454"/>
			</linearGradient>
			<path fill="url(#SVGID_13_)" d="M32.6,25.4c0.1,0,0.1,0,0.2,0c0.1,0,0.2,0,0.2,0s0.2,0,0.2,0.1c0.1,0,0.1,0.1,0.2,0.2
				c0.1,0.1,0.1,0.2,0.1,0.3s0,0.2,0,0.4c0,0.1,0,0.3,0,0.4c0,0.1-0.1,0.2-0.1,0.3c-0.1,0.1-0.1,0.1-0.2,0.2c-0.1,0-0.1,0.1-0.2,0.1
				c-0.1,0-0.2,0-0.2,0c-0.1,0-0.2,0-0.2,0h-0.3v-1.8C32.3,25.4,32.6,25.4,32.6,25.4z M32.7,26.9c0.1,0,0.1,0,0.2,0
				c0.1,0,0.1,0,0.2-0.1c0.1,0,0.1-0.1,0.2-0.2c0-0.1,0.1-0.2,0.1-0.3c0-0.1,0-0.2,0-0.2c0-0.1,0-0.1-0.1-0.2c0,0-0.1-0.1-0.1-0.1
				c0,0-0.1-0.1-0.1-0.1c0,0-0.1,0-0.1,0c0,0-0.1,0-0.1,0h-0.2v1.3L32.7,26.9L32.7,26.9L32.7,26.9z"/>
			
				<linearGradient id="SVGID_14_" gradientUnits="userSpaceOnUse" x1="616.1516" y1="-2463.8359" x2="637.3353" y2="-2427.1448" gradientTransform="matrix(4.084984e-02 0 0 4.084984e-02 8.8235 126.2523)">
				<stop  offset="0" style="stop-color:#535454"/>
				<stop  offset="0.1344" style="stop-color:#E5E5E5"/>
				<stop  offset="0.2527" style="stop-color:#B9B9B9"/>
				<stop  offset="0.4493" style="stop-color:#FFFFFF"/>
				<stop  offset="0.6935" style="stop-color:#A8A7A8"/>
				<stop  offset="0.8387" style="stop-color:#CFCFCE"/>
				<stop  offset="1" style="stop-color:#535454"/>
			</linearGradient>
			<path fill="url(#SVGID_14_)" d="M34.5,25.4c0.1,0,0.1,0,0.2,0c0,0,0.1,0,0.1,0c0,0,0.1,0,0.1,0.1l-0.1,0.2c0,0,0,0-0.1,0
				c0,0-0.1,0-0.1,0s-0.1,0-0.1,0c0,0-0.1,0-0.1,0c0,0-0.1,0-0.1,0.1c0,0,0,0,0,0.1s0,0,0,0.1c0,0.1,0,0.1,0.1,0.1
				c0,0,0.1,0.1,0.2,0.1c0.1,0,0.1,0,0.2,0.1c0.1,0,0.1,0,0.2,0.1c0.1,0,0.1,0.1,0.2,0.2s0.1,0.2,0.1,0.3c0,0.1,0,0.1,0,0.2
				c0,0.1-0.1,0.1-0.1,0.2c-0.1,0-0.1,0.1-0.2,0.1c-0.1,0-0.2,0-0.3,0c-0.1,0-0.2,0-0.2,0c-0.1,0-0.1,0-0.2-0.1c0,0-0.1,0-0.1-0.1
				c0,0-0.1,0-0.1-0.1l0.1-0.2c0.1,0.1,0.2,0.1,0.3,0.2c0.1,0,0.2,0,0.2,0c0,0,0.1,0,0.1,0c0,0,0.1,0,0.1-0.1c0,0,0.1-0.1,0.1-0.1
				c0,0,0-0.1,0-0.1c0-0.1,0-0.1,0-0.1c0,0-0.1-0.1-0.1-0.1c0,0-0.1,0-0.1-0.1s-0.1,0-0.2,0c-0.1,0-0.1,0-0.2-0.1
				c-0.1,0-0.1,0-0.1-0.1c0,0-0.1-0.1-0.1-0.1c0-0.1,0-0.1,0-0.2c0-0.1,0-0.2,0.1-0.2c0-0.1,0.1-0.1,0.1-0.1s0.1-0.1,0.2-0.1
				C34.4,25.4,34.4,25.4,34.5,25.4z"/>
		</g>
	</g>
	<polygon fill="none" points="25.3,18.6 28.9,24.7 30.3,24.7 26.1,17.3 	"/>
	<polygon fill="none" points="15.8,31.5 17.2,31.5 19.4,27.7 17.9,27.7 	"/>
	<polygon fill="none" points="25,19.1 21.8,24.7 28.2,24.7 	"/>
	<polygon fill="none" points="32.8,31.5 34.2,31.5 32.1,27.7 30.6,27.7 	"/>
	<polygon fill="none" points="17.9,31.5 32.1,31.5 30,27.7 20,27.7 	"/>
	<polygon fill="none" points="24.7,18.6 23.9,17.3 19.7,24.7 21.1,24.7 	"/>
	<polygon fill="none" points="17.5,32 16.8,33.3 33.2,33.3 32.5,32 	"/>
	<g>
		<g>
			
				<linearGradient id="SVGID_15_" gradientUnits="userSpaceOnUse" x1="302.897" y1="-2467.906" x2="471.6388" y2="-2175.6367" gradientTransform="matrix(4.084984e-02 0 0 4.084984e-02 8.8235 126.2523)">
				<stop  offset="0" style="stop-color:#535454"/>
				<stop  offset="0.1344" style="stop-color:#E5E5E5"/>
				<stop  offset="0.2527" style="stop-color:#B9B9B9"/>
				<stop  offset="0.4493" style="stop-color:#FFFFFF"/>
				<stop  offset="0.6935" style="stop-color:#A8A7A8"/>
				<stop  offset="0.8387" style="stop-color:#CFCFCE"/>
				<stop  offset="1" style="stop-color:#535454"/>
			</linearGradient>
			<path fill="url(#SVGID_15_)" d="M34.2,31.5h-1.5l-2.2-3.7H30l2.2,3.7H17.9l2.2-3.7h-0.7l-2.2,3.7h-1.5l2.2-3.7h-0.7L14.8,32h2.1
				l-1.1,1.8h18.3L33.1,32h2.1l-2.5-4.3h-0.7L34.2,31.5z M33.2,33.3H16.8l0.7-1.3h14.9L33.2,33.3z"/>
		</g>
	</g>
	<g>
		
			<linearGradient id="SVGID_16_" gradientUnits="userSpaceOnUse" x1="299.209" y1="-2654.7769" x2="432.5973" y2="-2423.7412" gradientTransform="matrix(4.084984e-02 0 0 4.084984e-02 8.8235 126.2523)">
			<stop  offset="0" style="stop-color:#535454"/>
			<stop  offset="0.1344" style="stop-color:#E5E5E5"/>
			<stop  offset="0.2527" style="stop-color:#B9B9B9"/>
			<stop  offset="0.4493" style="stop-color:#FFFFFF"/>
			<stop  offset="0.6935" style="stop-color:#A8A7A8"/>
			<stop  offset="0.8387" style="stop-color:#CFCFCE"/>
			<stop  offset="1" style="stop-color:#535454"/>
		</linearGradient>
		<polygon fill="url(#SVGID_16_)" points="23.9,17.3 24.7,18.6 21.1,24.7 21.8,24.7 25,19.1 28.2,24.7 28.9,24.7 25.3,18.6 
			26.1,17.3 30.3,24.7 31,24.7 26.1,16.1 25,18 25,18 25,18 23.9,16.1 19,24.7 19.7,24.7 		"/>
	</g>
	<g>
		
			<linearGradient id="SVGID_17_" gradientUnits="userSpaceOnUse" x1="357.4723" y1="-2508.3418" x2="435.5589" y2="-2508.3418" gradientTransform="matrix(4.084984e-02 0 0 4.084984e-02 8.8235 126.2523)">
			<stop  offset="0" style="stop-color:#535454"/>
			<stop  offset="0.1344" style="stop-color:#E5E5E5"/>
			<stop  offset="0.2527" style="stop-color:#B9B9B9"/>
			<stop  offset="0.4493" style="stop-color:#FFFFFF"/>
			<stop  offset="0.6935" style="stop-color:#A8A7A8"/>
			<stop  offset="0.8387" style="stop-color:#CFCFCE"/>
			<stop  offset="1" style="stop-color:#535454"/>
		</linearGradient>
		<path fill="url(#SVGID_17_)" d="M23.4,24.5C23.4,24.5,23.4,24.5,23.4,24.5c0-0.1,0-0.1,0-0.1c0,0,0,0,0,0c0,0,0,0,0,0
			c0,0,0-0.1,0-0.1c0,0,0-0.1,0-0.1c0,0,0-0.1,0-0.2c0,0,0-0.1,0-0.1c0,0,0-0.1,0-0.1c0,0,0-0.1,0-0.1c0,0,0-0.1,0-0.1
			c0-0.1,0.1-0.1,0.1-0.2c0.1-0.1,0.2-0.2,0.3-0.3c0,0,0.1,0,0.1-0.1s0.1,0,0.1-0.1l0.1,0l0.1,0c0,0,0.1,0,0.1,0
			c0.2,0,0.3-0.1,0.5-0.1l0.1,0c0,0,0,0,0.1,0l0.1,0l0.1,0l0,0l0,0c0,0,0.1,0,0.1,0c0,0,0.1,0,0.1,0l0.1,0l0.1,0c0,0,0.1,0,0.1,0.1
			c0,0,0.1,0,0.1,0.1c0.1,0.1,0.2,0.2,0.3,0.3c0,0.1,0.1,0.1,0.1,0.2c0,0,0,0.1,0,0.1c0,0,0,0.1,0,0.1c0,0,0,0.1,0,0.1
			c0,0,0,0.1,0,0.1c0,0.1,0,0.1,0,0.2c0,0,0,0.1,0,0.1c0,0,0,0.1,0,0.1c0,0,0,0,0,0c0,0,0,0,0,0c0,0,0,0,0,0.1c0,0,0,0.1,0,0.1
			s0,0.3,0,0.2c0,0,0,0,0-0.1c0,0,0,0,0,0c0,0,0,0,0,0c0,0,0-0.1,0-0.1c0,0,0-0.1,0-0.1c0,0,0-0.1-0.1-0.1c0,0,0-0.1-0.1-0.1
			c0,0,0,0,0-0.1c0,0,0,0-0.1-0.1c0,0-0.1-0.1-0.1-0.1c-0.1-0.1-0.2-0.2-0.3-0.3c-0.1-0.1-0.2-0.1-0.4-0.2c0,0-0.1,0-0.1,0l0,0l0,0
			l-0.1,0l-0.1,0c0,0,0,0-0.1,0l-0.1,0c-0.1,0-0.3,0-0.4,0.1c-0.1,0-0.3,0.1-0.4,0.2c-0.1,0.1-0.2,0.2-0.3,0.3c0,0-0.1,0.1-0.1,0.1
			c0,0,0,0-0.1,0.1c0,0,0,0,0,0.1c0,0-0.1,0.1-0.1,0.1c0,0,0,0.1-0.1,0.1C23.5,24.4,23.5,24.4,23.4,24.5
			C23.5,24.5,23.5,24.6,23.4,24.5c0,0.1,0,0.1,0,0.1c0,0,0,0,0,0c0,0,0,0,0,0.1C23.4,24.8,23.4,24.5,23.4,24.5z"/>
	</g>
	<g>
		
			<linearGradient id="SVGID_18_" gradientUnits="userSpaceOnUse" x1="383.4291" y1="-2549.0388" x2="410.8483" y2="-2549.0388" gradientTransform="matrix(4.084984e-02 0 0 4.084984e-02 8.8235 126.2523)">
			<stop  offset="0" style="stop-color:#535454"/>
			<stop  offset="0.1344" style="stop-color:#E5E5E5"/>
			<stop  offset="0.2527" style="stop-color:#B9B9B9"/>
			<stop  offset="0.4493" style="stop-color:#FFFFFF"/>
			<stop  offset="0.6935" style="stop-color:#A8A7A8"/>
			<stop  offset="0.8387" style="stop-color:#CFCFCE"/>
			<stop  offset="1" style="stop-color:#535454"/>
		</linearGradient>
		<path fill="url(#SVGID_18_)" d="M25.6,22.2c0-0.3-0.2-0.6-0.6-0.6s-0.6,0.2-0.6,0.6c0,0.2,0.1,0.4,0.3,0.5
			c-0.1-0.1-0.2-0.2-0.2-0.4c0-0.3,0.2-0.5,0.5-0.5C25.3,21.7,25.5,22,25.6,22.2c-0.1,0.2-0.1,0.4-0.2,0.5
			C25.5,22.5,25.6,22.4,25.6,22.2z"/>
	</g>
</g>
</svg>
